<svg width="250" height="250" viewBox="0 0 250 250" fill="none" xmlns="http://www.w3.org/2000/svg">
<path d="M0 0H250V250H0V0ZM229.521 190.375C227.698 178.969 220.271 169.385 198.24 160.448C190.573 156.854 182.052 154.354 179.521 148.573C178.573 145.135 178.427 143.26 179.042 141.229C180.604 134.5 188.573 132.479 194.823 134.354C198.885 135.604 202.635 138.729 204.99 143.729C215.76 136.688 215.76 136.688 223.271 132.01C220.458 127.635 219.062 125.75 217.167 123.885C210.604 116.542 201.865 112.792 187.646 113.115L180.302 114.042C173.26 115.76 166.552 119.51 162.49 124.51C150.615 137.958 154.042 161.396 168.417 171.083C182.635 181.708 203.427 184.042 206.083 194.052C208.583 206.24 197.021 210.146 185.604 208.74C177.156 206.865 172.479 202.635 167.323 194.823L148.26 205.771C150.448 210.771 152.948 212.948 156.698 217.323C174.823 235.615 220.135 234.677 228.271 206.865C228.573 205.927 230.771 199.521 229.042 189.677L229.521 190.375ZM135.948 114.906H112.531C112.531 135.094 112.438 155.156 112.438 175.375C112.438 188.208 113.094 199.99 111 203.615C107.563 210.792 98.7083 209.875 94.6875 208.615C90.5625 206.573 88.4688 203.76 86.0417 199.708C85.3854 198.615 84.8958 197.667 84.7188 197.667L65.7083 209.385C68.8854 215.948 73.5208 221.594 79.5 225.188C88.4062 230.5 100.375 232.219 112.906 229.406C121.062 227.052 128.094 222.208 131.771 214.708C137.083 205.021 135.958 193.146 135.906 179.854C136.031 158.458 135.906 137.052 135.906 115.49L135.948 114.906Z" fill="#F7DF1E"/>
</svg>
